<?xml version="1.0" standalone="no"?>
<!DOCTYPE svg PUBLIC "-//W3C//DTD SVG 20010904//EN"
 "http://www.w3.org/TR/2001/REC-SVG-20010904/DTD/svg10.dtd">
<svg version="1.0" xmlns="http://www.w3.org/2000/svg"
 width="300.000000pt" height="300.000000pt" viewBox="0 0 300.000000 300.000000"
 preserveAspectRatio="xMidYMid meet">
<metadata>
Created by potrace 1.11, written by Peter Selinger 2001-2013
</metadata>
<g transform="translate(0.000000,300.000000) scale(0.100000,-0.100000)"
fill="#000000" stroke="none">
<path d="M1396 1885 c-129 -46 -197 -176 -197 -375 -1 -164 29 -259 106 -336
102 -102 281 -99 386 6 82 82 122 243 100 407 -25 200 -131 313 -291 312 -36
0 -83 -6 -104 -14z m173 -150 c43 -37 62 -105 63 -224 0 -112 -6 -150 -33
-203 -28 -54 -59 -72 -116 -65 -86 9 -123 88 -123 262 0 125 18 193 61 229 42
36 106 36 148 1z"/>
<path d="M1453 1590 c-12 -5 -29 -23 -39 -41 -39 -75 31 -155 112 -129 62 21
83 111 35 154 -23 21 -78 29 -108 16z"/>
<path d="M632 1659 l-162 -231 0 -64 0 -64 185 0 184 0 3 -92 3 -93 83 -3 82
-3 0 96 0 95 50 0 50 0 0 70 0 70 -50 0 -50 0 0 225 0 225 -108 0 -108 0 -162
-231z m211 -77 l-6 -142 -94 0 c-51 0 -93 2 -93 5 0 3 22 36 49 73 26 37 70
100 96 140 27 40 49 71 51 69 2 -1 0 -67 -3 -145z"/>
<path d="M1980 1665 l0 -225 -50 0 -50 0 0 -70 0 -70 50 0 50 0 0 -95 0 -95
85 0 85 0 0 95 0 95 190 0 190 0 0 58 0 58 -167 237 -166 237 -109 0 -108 0 0
-225z m231 -27 c34 -51 77 -114 95 -139 19 -26 34 -49 34 -53 0 -3 -43 -6 -95
-6 l-95 0 0 108 c0 59 -3 124 -6 145 -4 20 -4 37 -1 37 4 0 34 -42 68 -92z"/>
</g>
</svg>
